# xmcd
#
# Track frame offsets:
#	150
#	13236
#	27371
#	45219
#	57150
#	67583
#	78430
#	92812
#	104439
#	119364
#
# Disc length: 1813 seconds
#
# Revision: 0
# Processed by: cddbd v1.5.2PL0 Copyright (c) Steve Scherf et al.
# Submitted via: EasyCDDAExtractor 16.0.6.1
#
DISCID=7407130a
DTITLE=Συλλογικός δίσκος - Λαϊκό τραγούδι 1954-1967, 1965-2
DYEAR=2008
DGENRE=Λαϊκή
TTITLE0=Μοσχολιού Βίκυ - Τα τραίνα που 'φύγαν [Σταύρος Ξαρχάκος-Βαγγ. Γκούφας/
TTITLE0=Βασ. Ανδρεόπουλος]
TTITLE1=Μοσχολιού Βίκυ - Ξημερώματα [Γιώργος Ζαμπέτας-Δημήτρης Χριστοδούλου]
TTITLE2=Μπιθικώτσης Γρηγόρης - Σαββατόβραδο στην Καισαριανή [Σταύρος Ξαρχάκος-
TTITLE2=Λευτέρης Παπαδόπουλος]
TTITLE3=Μπιθικώτσης Γρηγόρης-Βουγιουκλάκη Αλίκη - Υπομονή [Σταύρος Ξαρχάκος-Αλ
TTITLE3=έκος Σακελλάριος]
TTITLE4=Μαρινέλλα - Τα παλληκάρια [Γιάννης Μαρκόπουλος-Άκος Δασκαλόπουλος]
TTITLE5=Τσετίνης Μπάμπης-Διαμάντη Λίτσα - Είναι κρίμα [Γιώργος Μητσάκης]
TTITLE6=Τσετίνης Μπάμπης - Στο παλιό το μονοπάτι [Στέφανος Βαρτάνης]
TTITLE7=Λίντα Μαίρη - Θέλω να φύγω [Μανώλης Χιώτης]
TTITLE8=Λαμπράκη Χαρούλα - Απόψε έχω μεγάλο πόνο [Μανώλης Χιώτης]
TTITLE9=Άνευ ερμηνευτού - Φρεαττύδα [ορχ., Σταύρος Ξαρχάκος, μπουζ. Γιώργος Ζα
TTITLE9=μπέτας]
EXTD=
EXTT0=
EXTT1=
EXTT2=
EXTT3=
EXTT4=
EXTT5=
EXTT6=
EXTT7=
EXTT8=
EXTT9=
PLAYORDER=
